{"title":"Independence.Day.Resurgence.2016.1080p.HDRip.CROPPED.x264-SHOT","uid":15472575,"size":4135120522,"categoryP":"video","categoryS":"movies","magnet":"?xt=urn:btih:df64ccd63499274e606f37bfdd19a6c054249464&amp;dn=Independence.Day.Resurgence.2016.1080p.HDRip.CROPPED.x264-SHOT&amp;tr=udp%3A%2F%2Ftracker.leechers-paradise.org%3A6969&amp;tr=udp%3A%2F%2Fzer0day.ch%3A1337&amp;tr=udp%3A%2F%2Fopen.demonii.com%3A1337&amp;tr=udp%3A%2F%2Ftracker.coppersurfer.tk%3A6969&amp;tr=udp%3A%2F%2Fexodus.desync.com%3A6969","seeders":5,"leechers":2,"uploader":"Shakota","files":2,"time":1470154120,"description":"Independence.Day.Resurgence.2016.1080p.HDRip.CROPPED.x264.AAC2.0-SHOT\r\n\r\n\r\n\r\nTwo decades after the first Independence Day invasion, Earth is faced with a new extra-Solar threat. But will mankind's new space defenses be enough? \r\n\r\n\r\nVídeo\r\nID                                       : 1\r\nFormat                                   : AVC\r\nFormat/Info                              : Advanced Video Codec\r\nFormat profile                           :   \r\nFormat settings, CABAC                   : Não\r\nFormat settings, ReFrames                : 1 frame\r\nFormat settings, GOP                     : M=1, N=12\r\nCodec ID                                 : V_MPEG4/ISO/AVC\r\nDuration                                 : 1 h 59 min\r\nBit rate                                 : 4 495 kb/s\r\nWidth                                    : 1 920 pixels\r\nHeight                                   : 1 080 pixels\r\nDisplay aspect ratio                     : 16:9\r\nFrame rate mode                          : Constante\r\nFrame rate                               : 29.970 (30000/1001) FPS\r\nColor space                              : YUV\r\nChroma subsampling                       : 4:2:0\r\nBit depth                                : 8 bits\r\nScan type                                : Progressivo\r\nBits/(Pixel*Frame)                       : 0.072\r\nStream size                              : 3.74 GiB (97%)\r\nLanguage                                 : English\r\nDefault                                  : Yes\r\nForced                                   : No\r\n\r\nAudio\r\nID                                       : 2\r\nFormat                                   : MPEG Audio\r\nFormat version                           : Version 1\r\nFormat profile                           : Layer 2\r\nCodec ID                                 : A_MPEG/L2\r\nCodec ID/Hint                            : MP2\r\nDuration                                 : 1 h 59 min\r\nBit rate mode                            : Constante\r\nBit rate                                 : 128 kb/s\r\nChannel(s)                               : 2 canais\r\nSampling rate                            : 44.1 kHz\r\nFrame rate                               : 38.281 FPS (1152 spf)\r\nCompression mode                         : With Losses\r\nStream size                              : 109 MiB (3%)\r\nLanguage                                 : English\r\nDefault                                  : Yes\r\nForced                                   : No\r\n\r\n \nhttp://imgur.com/WleXR1e \nhttp://imgur.com/DsI6VOb \nhttp://imgur.com/isSovph \nhttp://imgur.com/N4AoAzI \nhttp://imgur.com/L42Ew8y \nhttp://imgur.com/YrjeVhG","torrent":{"xt":"urn:btih:df64ccd63499274e606f37bfdd19a6c054249464","amp;dn":"Independence.Day.Resurgence.2016.1080p.HDRip.CROPPED.x264-SHOT","amp;tr":["udp%3A%2F%2Ftracker.leechers-paradise.org%3A6969","udp%3A%2F%2Fzer0day.ch%3A1337","udp%3A%2F%2Fopen.demonii.com%3A1337","udp%3A%2F%2Ftracker.coppersurfer.tk%3A6969","udp%3A%2F%2Fexodus.desync.com%3A6969"],"infoHash":"df64ccd63499274e606f37bfdd19a6c054249464","infoHashBuffer":{"type":"Buffer","data":[223,100,204,214,52,153,39,78,96,111,55,191,221,25,166,192,84,36,148,100]},"announce":[],"urlList":[]}}